<svg xmlns="http://www.w3.org/2000/svg" width="100%" height="100%" viewBox="-0.020646587014198303 0 163.55029296875 40"  xmlns:xlink="http://www.w3.org/1999/xlink"><rect id="svgEditorBackground" x="0" y="0" width="163.50900268554688" height="40" style="fill:none;stroke:none;"/><defs id="svgEditorDefs"><linearGradient gradientUnits="objectBoundingBox" id="lgrd2-fire" spreadMethod="pad" x1="0%" x2="100%" y1="0%" y2="0%"><stop offset="0%" style="stop-color:rgb(255,255,0);stop-opacity:1"/><stop offset="100%" style="stop-color:rgb(255,0,0);stop-opacity:1"/></linearGradient><linearGradient gradientTransform="rotate(90)" gradientUnits="objectBoundingBox" id="lgrd2-d-reflect" spreadMethod="reflect" x1="0%" x2="5%" y1="0%" y2="5%"><stop offset="0%" stop-color="#e20709" stop-opacity="0.8"/><stop offset="5%" stop-color="#9ad346" stop-opacity="1"/></linearGradient></defs>
    <path d="M0,0.004000000000000007v8.998h0.024585798816555232v21.524627218934892h-0.024585798816555232v9.473372781065109h17.98v-9h-9.72772781065089v-23.181431952662727h0.4969585798816656v-7.814568047337271" style="fill:lime;"/>
    
    <path d="M112.357,-2.0816681711721685e-17h-9l-14.997,39.993h10.971879272029938l3.026889823764293,-16.97152034146101h9.147263591961106l4.159373627143395,16.97152034146101h10l-15.00099999999999,-39.993ZM115.80906037861563,40.841739671562536l-3.3186942738522163,-17.809370093919345h-10.02465147788783l2.095460416553209,-8.510863453700129h4.215990872895432Z" transform="matrix(-0.999967 0.00817875 -0.00817875 -0.999967 213.865 38.9918)" style="fill: blue;"/>
    <path d="M83.86856804733728,39.985l-10.776999999999987,-12.843h-5.550000000000011l-0.030000000000001137,12.852999999999998h-9.041999999999994v-40.004999999999995l15.103000000000002,-0.00600000000000012c8.793000000000006,0,16.055999999999997,3.137999999999998,16.055999999999997,13.265999999999995c0,6.27300000000001,-2.9949999999999903,10.260000000000002,-7.390000000000001,12.285000000000007l6.415491124260342,7.5602958579881445l5.86539644970415,6.179644970414216ZM67.58856804733728,18.088h7.638000000000005c3.6640000000000015,0,5.6640000000000015,-1.6099999999999994,5.6640000000000015,-4.736000000000001c0,-3.125,-2,-4.198,-5.6640000000000015,-4.198h-7.635999999999996v8.934000000000001Z" style="fill:red;fill-opacity:1;"/>
    <path fill="#F68C13" d="M163.418,18.18h-20.045999999999992v8.777999999999999h9.067000000000007c-2.0740000000000123,2.751999999999999,-5.356999999999999,4.539999999999999,-9.069999999999993,4.539999999999999c-6.272999999999996,0,-11.360000000000014,-5.0859999999999985,-11.360000000000014,-11.36c0,-6.276,5.086999999999989,-11.363,11.360000000000014,-11.363c3.8249999999999886,0,7.199999999999989,1.8949999999999996,9.25800000000001,4.789999999999999l7.626000000000005,-4.4879999999999995c-3.5670000000000357,-5.459999999999998,-9.729000000000042,-9.076999999999998,-16.741000000000042,-9.076999999999998c-11.044999999999987,0,-19.998000000000005,8.95,-19.998000000000005,19.997c0,11.045000000000002,8.952000000000012,19.998000000000005,19.998000000000005,19.998000000000005c11.045999999999992,0,19.99799999999999,-8.953,19.99799999999999,-19.998c0,-0.6140000000000008,-0.03700000000000614,-1.2199999999999989,-0.09200000000001296,-1.8170000000000002Z"/>
<path d="M185.27724877055323,0.10359104937976546h-9l-14.996999999999986,39.99300000000001h10l5.927041255094281,-16.969584543366018h7.013285727982179l6.056673016923526,16.969584543366018h9.999999999999972l-15.000999999999948,-39.99300000000001ZM177.27724877055323,23.099591049379764l3,-8.999999999999998h1l4.142400219076762,12.563708978772093h-9.56242347772394Z" transform="matrix(0.999969 0.00797369 -0.00797369 0.999969 -142.715 -1.88008)" style="fill:yellow;fill-opacity:1;" id="e14_path"/></svg>