<svg
        xmlns="http://www.w3.org/2000/svg"
        width="100%"
        height="100%"
        viewBox="0 0 163.509 40"
>
    <path
            fill="#FFC405"
            d="M0 .004v8.998h4.995V31H0v9h17.98v-9h-4.994V9.002h4.994V.004"
    />
    <path
            fill="#51BBF4"
            d="M88.093-.014h-8.916L72.912 22.14 66.792-.013h-8.618L47.206 39.982h9.03l5.95-21.94 6.27 21.94h9.275l5.686-22.393 5.293 15.198 5.576-14.745z"
    />
    <path
            fill="#E07DAE"
            d="M112.357 0h-9L88.36 39.993h10l2.895-8h13.225l2.877 8h10L112.356 0zm-8 22.996l3-9h1l3 9h-7z"
    />
    <path
            fill="#81D852"
            d="M45.052 39.985L34.275 27.142h-5.55l-.03 12.853h-9.042V-.01l15.103-.006c8.793 0 16.056 3.138 16.056 13.266 0 6.273-2.995 10.26-7.39 12.285l4.522 4.01-2.892 10.44zm-16.28-21.897h7.638c3.664 0 5.664-1.61 5.664-4.736 0-3.125-2-4.198-5.664-4.198h-7.636v8.934z"
    />
    <path
            fill="#F68C13"
            d="M163.418 18.18h-20.046v8.778h9.067c-2.074 2.752-5.357 4.54-9.07 4.54-6.273 0-11.36-5.086-11.36-11.36 0-6.276 5.087-11.363 11.36-11.363 3.825 0 7.2 1.895 9.258 4.79l7.626-4.488C156.686 3.617 150.524 0 143.512 0c-11.045 0-19.998 8.95-19.998 19.997 0 11.045 8.952 19.998 19.998 19.998 11.046 0 19.998-8.953 19.998-19.998 0-.614-.037-1.22-.092-1.817z"
    />
</svg>